# xmcd
#
# Track frame offsets: 
#        150
#        24009
#        36279
#        49945
#        68347
#        88812
#        111135
#        124391
#        142169
#        156468
#
# Disc length: 2355 seconds
#
# Revision: 0
# Processed by: cddbd v1.5.2PL0 Copyright (c) Steve Scherf et al.
# Submitted via: ExactAudioCopy v0.99pb3
#
DISCID=8909310a
DTITLE=Tift Merritt - Traveling Alone (Disc2)
DYEAR=2013
DGENRE=Country
TTITLE0=Traveling Alone
TTITLE1=Lingering On
TTITLE2=Train Song
TTITLE3=Drifted Apart
TTITLE4=Real Understanding
TTITLE5=For Free
TTITLE6=Real Good on My Own
TTITLE7=Country Cemetery
TTITLE8=To Myself
TTITLE9=Southern Downtown
EXTD=
EXTT0=
EXTT1=
EXTT2=
EXTT3=
EXTT4=
EXTT5=
EXTT6=
EXTT7=
EXTT8=
EXTT9=
PLAYORDER=
